# xmcd
#
# Track frame offsets:
# 150
# 16158
# 39575
# 48817
# 67250
# 81348
# 98764
# 116934
# 135707
# 153162
# 172362
# 192232
# 216073
# 235745
# 254770
# 279642
#
# Disc length: 3984 seconds
#
#
# Revision: 0
# Processed by: cddbd v1.5.1PL0 Copyright (c) Steve Scherf et al.
# Submitted via: FreeRIP 2.51 
#
DISCID=eb0f8e10
DTITLE=Various Artist - Soul Sisters
DYEAR=1900
DGENRE=Soul
TTITLE0=Brenda Hollaway - Every Little Bit Hurts
TTITLE1=The Three Degrees - Woman In Love
TTITLE2=Gladys Knight And The Pips - Every Beat Of My Heart
TTITLE3=Amii Stewart - Friends
TTITLE4=Evelyn Thomas - Heartless
TTITLE5=Joyce Simms - Who's Crying Now
TTITLE6=Frances Nero - Footsteps Following Me
TTITLE7=Loleatta Holloway - Heartstealer
TTITLE8=Blinky - I Wouldn't Change The Man He Is
TTITLE9=Miquel Brown - Close To Perfection
TTITLE10=Billie Calvin - Wishing On A Star
TTITLE11=Susaye Green - Free
TTITLE12=Odyssey - If You're Looking For A Way Out
TTITLE13=Barbara Pennington - On A Crowded Street
TTITLE14=Rose Royce - Love Don't Live Here Anymore
TTITLE15=Supremes - Stop! In The Name Of Love
EXTD=
EXTT0=
EXTT1=
EXTT2=
EXTT3=
EXTT4=
EXTT5=
EXTT6=
EXTT7=
EXTT8=
EXTT9=
EXTT10=
EXTT11=
EXTT12=
EXTT13=
EXTT14=
EXTT15=
PLAYORDER=
